<svg xmlns="http://www.w3.org/2000/svg" width="600" height="200" viewBox="0 0 600 200">
  <rect width="100%" height="100%" fill="#0D0D0D"/>
  <g><line x1="-200" y1="200" x2="0" y2="0" stroke="#252525" stroke-width="2" opacity="0.35"/><line x1="-144" y1="200" x2="56" y2="0" stroke="#252525" stroke-width="2" opacity="0.35"/><line x1="-88" y1="200" x2="112" y2="0" stroke="#252525" stroke-width="2" opacity="0.35"/><line x1="-32" y1="200" x2="168" y2="0" stroke="#252525" stroke-width="2" opacity="0.35"/><line x1="24" y1="200" x2="224" y2="0" stroke="#252525" stroke-width="2" opacity="0.35"/><line x1="80" y1="200" x2="280" y2="0" stroke="#252525" stroke-width="2" opacity="0.35"/><line x1="136" y1="200" x2="336" y2="0" stroke="#252525" stroke-width="2" opacity="0.35"/><line x1="192" y1="200" x2="392" y2="0" stroke="#252525" stroke-width="2" opacity="0.35"/><line x1="248" y1="200" x2="448" y2="0" stroke="#252525" stroke-width="2" opacity="0.35"/><line x1="304" y1="200" x2="504" y2="0" stroke="#252525" stroke-width="2" opacity="0.35"/><line x1="360" y1="200" x2="560" y2="0" stroke="#252525" stroke-width="2" opacity="0.35"/><line x1="416" y1="200" x2="616" y2="0" stroke="#252525" stroke-width="2" opacity="0.35"/><line x1="472" y1="200" x2="672" y2="0" stroke="#252525" stroke-width="2" opacity="0.35"/><line x1="528" y1="200" x2="728" y2="0" stroke="#252525" stroke-width="2" opacity="0.35"/><line x1="584" y1="200" x2="784" y2="0" stroke="#252525" stroke-width="2" opacity="0.35"/><line x1="640" y1="200" x2="840" y2="0" stroke="#252525" stroke-width="2" opacity="0.35"/><line x1="696" y1="200" x2="896" y2="0" stroke="#252525" stroke-width="2" opacity="0.35"/><line x1="752" y1="200" x2="952" y2="0" stroke="#252525" stroke-width="2" opacity="0.35"/></g>
  <polygon points="44,36 124,36 124,116 108,132 28,132 28,52" fill="#FFFFFF"/>
  <text x="76" y="91" text-anchor="middle" dominant-baseline="middle" font-family="Bebas Neue, Impact, Arial Narrow, sans-serif" font-size="66" font-weight="900" fill="#0D0D0D">IF</text>
  <text x="164" y="78" font-family="Bebas Neue, Impact, Arial Narrow, sans-serif" font-size="72" font-weight="900" fill="#FFFFFF" letter-spacing="1">IRON FORGE</text>
  <rect x="164" y="111" width="330" height="6" fill="#FFFFFF"/>
  <text x="164" y="142" font-family="Barlow Condensed, Arial Narrow, sans-serif" font-size="21" font-weight="700" fill="#4A4A44">GYM / RÈN THÂN. RÈN TÂM. KHÔNG GIỚI HẠN.</text>
</svg>